<?xml version="1.0" standalone="no"?>
<!DOCTYPE svg PUBLIC "-//W3C//DTD SVG 20010904//EN"
 "http://www.w3.org/TR/2001/REC-SVG-20010904/DTD/svg10.dtd">
<svg version="1.0" xmlns="http://www.w3.org/2000/svg"
 width="900.000000pt" height="516.000000pt" viewBox="0 0 900.000000 516.000000"
 preserveAspectRatio="xMidYMid meet">
<metadata>
Created by potrace 1.10, written by Peter Selinger 2001-2011
</metadata>
<g transform="translate(0.000000,516.000000) scale(0.100000,-0.100000)"
fill="#000000" stroke="none">
<path d="M5655 5145 c-7 -11 -39 -19 -99 -26 -48 -5 -96 -14 -106 -19 -10 -6
-27 -10 -37 -10 -21 0 -188 -53 -243 -76 -42 -19 -234 -115 -258 -129 -289
-176 -567 -454 -786 -788 -21 -31 -43 -60 -49 -65 -7 -4 -135 -9 -285 -12
l-273 -5 -20 -25 c-10 -14 -22 -36 -25 -50 -3 -14 -10 -34 -15 -45 -5 -11 -27
-74 -49 -140 -37 -113 -90 -262 -103 -295 -8 -18 -58 -163 -84 -240 -3 -11
-10 -8 -29 15 -13 17 -24 37 -24 45 0 8 -6 27 -14 42 -8 15 -17 40 -21 57 -4
17 -11 33 -16 36 -5 4 -9 13 -9 22 0 8 -6 29 -14 46 -8 18 -23 59 -35 92 -11
33 -30 85 -41 115 -12 30 -26 71 -32 90 -5 19 -14 39 -19 45 -5 5 -9 15 -9 23
0 8 -6 28 -14 45 -7 18 -19 47 -26 65 -25 66 30 62 -893 62 -559 0 -845 -3
-858 -10 -18 -10 -19 -24 -19 -241 0 -140 4 -238 10 -250 10 -18 23 -19 230
-19 l220 0 0 -578 c0 -436 3 -581 12 -590 9 -9 85 -12 278 -12 246 0 268 1
283 18 16 17 17 70 15 588 l-3 569 140 3 141 3 18 -43 c9 -24 24 -61 33 -83 8
-22 21 -53 29 -68 8 -16 14 -33 14 -39 0 -5 6 -24 14 -41 7 -18 23 -57 35 -87
12 -30 26 -64 31 -75 4 -11 18 -45 30 -75 11 -30 25 -64 30 -75 4 -11 18 -45
30 -75 21 -55 30 -77 55 -135 7 -16 23 -55 34 -85 12 -30 26 -64 31 -75 4 -11
19 -47 31 -80 13 -33 26 -64 30 -70 3 -5 9 -22 13 -36 3 -15 13 -29 21 -33 21
-8 445 -9 476 -1 28 7 36 23 124 240 21 50 41 99 45 110 5 11 19 45 30 75 12
30 26 64 30 75 5 11 19 45 30 75 12 30 26 64 30 75 5 11 19 45 30 75 12 30 26
64 31 75 5 11 27 65 48 120 37 91 60 127 61 93 1 -7 2 -96 4 -198 2 -176 7
-216 43 -390 75 -365 264 -710 538 -985 87 -87 283 -245 304 -245 5 0 11 -4
13 -8 10 -24 284 -164 408 -207 74 -27 235 -68 365 -95 87 -18 443 -25 535
-10 41 6 100 15 130 20 97 14 286 69 395 115 46 20 211 100 240 117 173 105
263 175 406 317 174 173 282 323 379 526 29 61 57 118 62 128 28 55 73 213
119 417 16 73 24 475 10 565 -17 119 -32 199 -41 230 -4 17 -16 57 -25 90 -26
89 -64 191 -116 302 -38 81 -164 290 -189 313 -3 3 -28 34 -55 69 -113 148
-383 385 -505 444 -8 4 -37 21 -65 37 -45 28 -83 46 -195 97 -19 9 -42 19 -50
23 -29 14 -246 78 -316 94 -40 9 -89 16 -110 17 -52 1 -90 13 -86 27 1 9 -54
12 -211 12 -179 0 -214 -2 -222 -15z m170 -1152 c115 -44 162 -75 246 -161
102 -104 148 -191 168 -313 15 -87 14 -140 -3 -224 -31 -156 -95 -263 -211
-355 -36 -28 -65 -54 -65 -58 0 -5 35 -57 78 -116 159 -220 245 -351 263 -400
24 -66 25 -66 -318 -66 l-304 0 -17 30 c-9 16 -20 30 -24 30 -5 0 -8 4 -8 10
0 5 -20 39 -45 76 -25 36 -45 67 -45 70 0 4 -25 40 -77 109 -5 6 -25 36 -46
67 -38 55 -79 80 -107 63 -6 -4 -10 -81 -10 -208 -1 -183 -2 -204 -19 -224
-19 -23 -22 -23 -281 -23 l-261 0 -15 35 c-12 29 -14 159 -14 837 0 724 2 806
16 827 l16 23 517 -5 c480 -4 519 -6 566 -24z m1194 1 c21 -27 21 -32 21 -838
-1 -778 -1 -812 -19 -833 -19 -23 -22 -23 -281 -23 l-261 0 -15 35 c-12 29
-14 158 -14 830 0 800 1 825 34 847 6 4 124 8 263 8 l252 0 20 -26z"/>
<path d="M5307 3573 c-4 -3 -7 -96 -7 -205 l0 -198 111 0 c184 0 241 42 247
181 6 122 -39 189 -144 214 -61 15 -196 20 -207 8z"/>
<path d="M7490 554 c-55 -10 -107 -40 -150 -85 -37 -38 -49 -60 -64 -117 -17
-65 -17 -74 -2 -131 30 -116 84 -172 196 -203 67 -18 77 -18 175 -1 128 22
126 19 123 182 l-3 136 -112 3 -113 3 0 -65 0 -65 37 -3 c41 -3 55 -27 33 -53
-30 -36 -129 -1 -157 55 -31 61 -7 154 50 188 40 26 81 28 121 7 15 -8 34 -15
40 -15 15 0 88 98 81 109 -21 36 -178 69 -255 55z"/>
<path d="M0 285 l0 -266 78 3 77 3 3 92 c2 83 5 93 21 93 11 0 21 -7 25 -15
16 -42 104 -164 121 -169 11 -3 99 -5 196 -5 l176 0 16 35 17 35 97 -3 c89 -3
98 -5 101 -23 6 -34 32 -45 108 -45 72 0 94 9 77 33 -5 7 -19 39 -32 72 -12
33 -30 78 -38 100 -8 22 -22 58 -30 80 -9 22 -19 49 -24 60 -4 11 -18 45 -29
75 -41 106 -40 105 -117 108 -86 4 -110 -2 -118 -31 -4 -12 -13 -35 -20 -52
-7 -16 -22 -55 -34 -85 -12 -30 -26 -64 -30 -75 -5 -11 -16 -40 -26 -65 -9
-25 -23 -58 -30 -75 -8 -16 -17 -41 -21 -55 -10 -35 -34 -70 -48 -70 -7 0 -49
51 -94 113 -45 61 -86 117 -92 124 -16 19 -12 35 18 74 33 43 99 123 129 157
13 13 20 28 17 33 -3 5 -43 9 -88 9 l-84 0 -56 -75 c-31 -42 -59 -82 -62 -90
-4 -8 -14 -15 -25 -15 -16 0 -19 10 -21 88 l-3 87 -77 3 -78 3 0 -266z m845
38 c10 -15 19 -43 19 -62 1 -34 -1 -36 -34 -39 -49 -3 -67 10 -53 40 7 13 15
38 18 56 8 39 27 41 50 5z"/>
<path d="M1195 538 c-3 -7 -4 -126 -3 -263 l3 -250 150 -3 c197 -4 192 -5 191
60 -1 29 -5 59 -9 65 -5 9 -35 13 -88 13 -43 0 -80 1 -81 3 -1 1 -4 88 -7 192
l-6 190 -73 3 c-53 2 -74 -1 -77 -10z"/>
<path d="M1615 528 c-3 -13 -4 -131 -3 -263 l3 -240 80 0 80 0 0 260 0 260
-77 3 c-74 3 -78 2 -83 -20z"/>
<path d="M1902 528 c-12 -36 -8 -486 4 -498 6 -6 39 -10 75 -8 l64 3 3 133 c1
72 6 132 10 132 19 -1 33 -20 41 -61 9 -43 17 -67 51 -159 16 -44 17 -45 66
-48 27 -1 54 1 59 5 9 7 50 124 83 238 5 17 15 30 23 30 11 0 15 -27 17 -138
l3 -138 77 3 77 3 0 260 0 260 -110 0 c-124 0 -117 5 -149 -105 -34 -120 -48
-159 -61 -170 -12 -10 -16 -7 -24 11 -17 45 -63 184 -68 209 -12 53 -28 60
-135 60 -93 0 -99 -1 -106 -22z"/>
<path d="M2833 542 c-6 -4 -15 -20 -18 -35 -4 -15 -11 -30 -16 -33 -5 -3 -9
-12 -9 -21 0 -8 -6 -29 -14 -46 -7 -18 -23 -57 -35 -87 -12 -30 -26 -64 -31
-75 -4 -11 -18 -45 -30 -75 -11 -30 -25 -64 -31 -75 -5 -11 -10 -31 -11 -45
-3 -25 -2 -25 75 -28 l78 -3 14 36 15 35 96 0 95 0 15 -35 14 -35 80 0 c43 0
81 4 85 9 5 9 1 20 -26 86 -9 22 -43 110 -66 170 -9 22 -22 54 -29 72 -8 17
-14 36 -14 41 0 6 -6 23 -14 39 -8 15 -22 47 -32 71 l-17 42 -81 0 c-45 0 -86
-4 -93 -8z m121 -251 c10 -28 15 -55 11 -61 -9 -14 -80 -13 -93 3 -7 8 -6 19
3 37 8 14 14 34 15 46 0 26 20 46 35 34 6 -5 19 -31 29 -59z"/>
<path d="M3287 543 c-4 -3 -7 -120 -7 -259 0 -286 -7 -264 91 -264 l58 0 3
117 c3 130 14 148 51 83 11 -19 33 -57 48 -85 16 -27 33 -59 38 -70 17 -39 36
-46 118 -43 l78 3 0 260 0 260 -70 0 -70 0 0 -122 c0 -82 -4 -126 -12 -134 -9
-9 -15 -6 -24 14 -7 15 -16 27 -20 27 -4 0 -12 12 -18 28 -6 15 -26 54 -46 87
-19 33 -38 67 -42 75 -3 8 -11 18 -17 22 -14 10 -150 10 -159 1z"/>
<path d="M3847 544 c-4 -4 -7 -33 -7 -65 0 -65 5 -69 81 -69 33 0 51 -5 55
-14 3 -7 6 -94 7 -192 l2 -179 80 0 80 0 5 190 5 190 60 5 60 5 0 65 0 65
-211 3 c-115 1 -213 -1 -217 -4z"/>
<path d="M4490 504 c-11 -26 -20 -52 -20 -58 0 -7 -7 -21 -15 -32 -8 -10 -15
-25 -15 -32 0 -8 -6 -28 -14 -45 -7 -18 -23 -57 -35 -87 -12 -30 -26 -64 -31
-75 -39 -94 -51 -129 -46 -141 4 -10 25 -14 81 -14 l75 0 14 35 15 35 95 0 96
0 14 -35 15 -35 80 0 c83 0 98 7 82 37 -5 10 -17 38 -26 63 -10 25 -24 59 -31
77 -8 17 -14 36 -14 41 0 6 -6 23 -14 39 -8 15 -22 48 -31 73 -32 83 -48 125
-64 162 l-16 37 -87 1 -87 0 -21 -46z m130 -181 c0 -8 7 -28 16 -44 19 -39 5
-59 -41 -59 -46 0 -60 20 -41 59 9 16 16 36 16 44 0 7 5 18 12 25 14 14 38 -2
38 -25z"/>
<path d="M4957 543 c-4 -3 -7 -120 -7 -259 0 -287 -8 -264 96 -264 l63 0 3
118 c2 90 6 117 17 117 11 0 45 -52 91 -140 50 -95 52 -96 144 -93 l81 3 0
260 0 260 -70 0 -70 0 -3 -125 c-1 -68 -6 -128 -11 -133 -10 -10 -34 23 -86
118 -21 39 -49 87 -62 108 l-23 37 -78 0 c-43 0 -82 -3 -85 -7z"/>
<path d="M5702 483 l3 -68 57 -3 c31 -2 61 -9 67 -16 6 -7 12 -84 13 -192 l3
-179 54 -3 c107 -6 100 -19 103 196 l3 187 63 3 62 3 0 69 0 70 -215 0 -216 0
3 -67z"/>
<path d="M6212 288 l3 -263 183 -3 182 -2 0 65 0 65 -92 0 c-104 0 -121 7
-116 41 3 23 7 24 90 27 l86 3 4 55 c1 31 1 58 -1 60 -2 2 -37 4 -77 4 -91 0
-104 5 -104 40 0 36 13 40 116 40 l85 0 -3 63 -3 62 -178 3 -177 2 2 -262z"/>
<path d="M6685 537 c-3 -7 -4 -125 -3 -262 l3 -250 70 0 70 0 0 112 c0 161 10
164 88 23 11 -19 35 -59 53 -87 l34 -53 72 0 c40 0 79 4 86 8 9 7 12 66 10
263 l-3 254 -72 3 -72 3 -3 -128 c-3 -109 -5 -128 -19 -131 -11 -2 -21 7 -28
25 -6 15 -26 55 -46 88 -19 33 -38 67 -42 75 -4 8 -16 27 -27 43 -18 25 -25
27 -93 27 -50 0 -75 -4 -78 -13z"/>
<path d="M8026 528 c-9 -12 -16 -26 -16 -31 0 -5 -6 -23 -14 -40 -7 -18 -21
-52 -31 -77 -9 -25 -23 -58 -30 -75 -7 -16 -20 -50 -30 -75 -9 -25 -23 -58
-31 -75 -7 -16 -16 -42 -20 -58 -3 -15 -10 -30 -15 -33 -5 -3 -9 -14 -9 -25 0
-17 7 -19 79 -19 l79 0 21 35 20 35 91 0 c89 0 91 0 101 -27 15 -39 24 -43
112 -43 84 0 89 4 62 56 -8 16 -15 36 -15 44 0 9 -4 20 -8 25 -4 6 -18 37 -31
70 -27 72 -77 198 -97 243 -8 18 -14 39 -14 46 0 31 -35 46 -113 46 -67 0 -78
-3 -91 -22z m106 -190 c8 -7 20 -32 26 -55 12 -51 0 -66 -50 -61 -32 3 -33 5
-30 41 4 45 18 87 30 87 4 0 15 -6 24 -12z"/>
<path d="M8485 537 c-3 -7 -4 -125 -3 -262 l3 -250 80 0 80 0 3 80 c4 129 1
125 82 125 86 0 90 -6 90 -124 l0 -86 90 0 90 0 0 265 0 265 -90 0 -90 0 0
-84 c0 -60 -4 -87 -14 -95 -9 -7 -41 -11 -83 -9 l-68 3 -3 70 c-4 119 -1 115
-88 115 -51 0 -76 -4 -79 -13z"/>
</g>
</svg>
