<?xml version="1.0" encoding="UTF-8"?>
<svg version="1.1" xmlns="http://www.w3.org/2000/svg" width="1280" height="735">
<path d="M0 0 C0.98672699 -0.00701431 1.97345398 -0.01402863 2.99008179 -0.02125549 C6.15749726 -0.03866982 9.32472591 -0.04510784 12.4921875 -0.046875 C13.57298584 -0.04754974 14.65378418 -0.04822449 15.76733398 -0.04891968 C31.19704751 -0.03358398 46.17021343 0.30846327 61.3671875 3.203125 C62.31174805 3.36941406 63.25630859 3.53570312 64.22949219 3.70703125 C129.53788622 15.28881541 193.77746337 50.92911208 234.3671875 104.203125 C235.36580619 105.4633354 236.36592761 106.72235581 237.3671875 107.98046875 C256.46730266 132.18460512 271.09224715 159.14118648 281.3671875 188.203125 C281.84212646 189.52546143 281.84212646 189.52546143 282.32666016 190.87451172 C289.76365622 211.84955911 294.54975292 234.01626124 296.3671875 256.203125 C296.47675781 257.37359375 296.58632812 258.5440625 296.69921875 259.75 C300.88257341 310.84270492 290.73617442 362.18237543 268.3671875 408.203125 C267.98868652 408.98606934 267.61018555 409.76901367 267.22021484 410.57568359 C258.35940131 428.68354163 247.14661179 445.61894298 234.3671875 461.203125 C233.90586426 461.76596191 233.44454102 462.32879883 232.96923828 462.90869141 C220.84903655 477.57586294 207.52911528 491.65656003 192.3671875 503.203125 C190.86865234 504.39228516 190.86865234 504.39228516 189.33984375 505.60546875 C143.98392362 541.47022976 85.19431716 565.12154916 26.953125 565.40625 C25.98877533 565.41330963 25.02442566 565.42036926 24.03085327 565.42764282 C-15.91653708 565.65373361 -15.91653708 565.65373361 -33.6328125 562.203125 C-34.6547168 562.01508301 -35.67662109 561.82704102 -36.72949219 561.63330078 C-61.44891652 556.99425683 -86.07280163 549.41348595 -108.6328125 538.203125 C-109.51984863 537.76774414 -110.40688477 537.33236328 -111.32080078 536.88378906 C-144.31011789 520.57660161 -175.83949437 497.52850373 -199.6328125 469.203125 C-200.35500977 468.34944336 -200.35500977 468.34944336 -201.09179688 467.47851562 C-213.02189146 453.31794825 -223.53982298 438.33633258 -232.6328125 422.203125 C-233.06062012 421.44467285 -233.48842773 420.6862207 -233.92919922 419.90478516 C-248.34956356 394.03952235 -258.24785413 366.47994218 -263.9453125 337.453125 C-264.30931152 335.60823486 -264.30931152 335.60823486 -264.68066406 333.72607422 C-268.12570386 315.28999492 -268.91054732 297.24581268 -268.7578125 278.515625 C-268.7477492 276.3378948 -268.73862935 274.16016003 -268.73046875 271.98242188 C-268.7087516 266.72255404 -268.67554662 261.46286197 -268.6328125 256.203125 C-268.92079208 256.92418427 -269.20877167 257.64524353 -269.50547791 258.38815308 C-299.64208331 333.84035288 -299.64208331 333.84035288 -310.64978027 360.79443359 C-311.6786405 363.31541583 -312.70509467 365.83737012 -313.73144531 368.359375 C-315.46406447 372.61336348 -317.2064853 376.86321777 -318.95620728 381.11019897 C-319.60574418 382.68982157 -320.25262052 384.27054133 -320.89657593 385.85244751 C-321.77597644 388.01047141 -322.66583516 390.1638807 -323.55859375 392.31640625 C-324.05786377 393.53110596 -324.55713379 394.74580566 -325.0715332 395.99731445 C-328.73459445 403.51876202 -328.73459445 403.51876202 -332.36408997 404.82730103 C-335.26479075 405.30781501 -338.04896058 405.33849995 -340.99023438 405.34838867 C-342.92243835 405.35795845 -342.92243835 405.35795845 -344.89367676 405.36772156 C-346.29630496 405.3692501 -347.69893366 405.37036413 -349.1015625 405.37109375 C-350.54357944 405.37430817 -351.98559605 405.37767238 -353.4276123 405.38117981 C-356.44702918 405.38716131 -359.46641746 405.38902064 -362.48583984 405.38842773 C-366.35286636 405.388326 -370.21970973 405.40199412 -374.08669281 405.41919994 C-377.06354616 405.43032135 -380.04035518 405.43234692 -383.01722717 405.43181801 C-384.442964 405.4329973 -385.868702 405.43741624 -387.29441833 405.44515038 C-389.28805168 405.45495542 -391.28173886 405.45080663 -393.27539062 405.44604492 C-394.40916138 405.44746994 -395.54293213 405.44889496 -396.71105957 405.45036316 C-399.63308223 405.20310218 -401.25245297 404.88854352 -403.6328125 403.203125 C-404.68469238 401.53546143 -404.68469238 401.53546143 -405.47851562 399.49707031 C-405.78937103 398.71932755 -406.10022644 397.94158478 -406.42050171 397.14027405 C-406.74837677 396.27929611 -407.07625183 395.41831818 -407.4140625 394.53125 C-407.77585602 393.61544662 -408.13764954 392.69964325 -408.51040649 391.75608826 C-409.73047857 388.65989301 -410.93118303 385.55651949 -412.1328125 382.453125 C-413.0021979 380.23873176 -413.8731714 378.02496147 -414.74560547 375.81176758 C-416.41142907 371.58404094 -418.07367821 367.35495507 -419.73140526 363.12404728 C-424.7669888 350.27862638 -429.90807693 337.475402 -435.04169464 324.6689291 C-437.15154466 319.40539372 -439.2579683 314.14049784 -441.36230469 308.87475586 C-446.69896248 295.52176511 -452.04313505 282.17204544 -457.421875 268.8359375 C-458.68421949 265.70078199 -459.94617025 262.56546836 -461.20794678 259.43008423 C-462.35382587 256.58753138 -463.50519179 253.74724297 -464.65673828 250.90698242 C-465.3313469 249.23107463 -466.00568279 247.55505701 -466.6796875 245.87890625 C-467.13681625 244.75931015 -467.13681625 244.75931015 -467.60317993 243.61709595 C-468.78822798 240.6554662 -469.6328125 238.42500834 -469.6328125 235.203125 C-482.5028125 235.203125 -495.3728125 235.203125 -508.6328125 235.203125 C-508.62757568 240.25157715 -508.62233887 245.3000293 -508.61694336 250.50146484 C-508.60040783 267.14157083 -508.58929058 283.78167713 -508.58100033 300.42178917 C-508.5758383 310.51524651 -508.56879736 320.60869608 -508.55737305 330.70214844 C-508.54742338 339.49691384 -508.54095839 348.29167362 -508.53872401 357.0864445 C-508.53741738 361.74561867 -508.53433456 366.40477674 -508.52708244 371.06394577 C-508.52031778 375.44525939 -508.51819646 379.82655023 -508.51970482 384.20786858 C-508.51942869 385.81958706 -508.51742621 387.43130627 -508.51360703 389.04302025 C-508.50866282 391.23625864 -508.50981692 393.42940992 -508.51255798 395.62265015 C-508.51117529 397.46715791 -508.51117529 397.46715791 -508.50976467 399.34892845 C-508.6328125 402.203125 -508.6328125 402.203125 -509.6328125 404.203125 C-513.12305464 405.36653905 -516.25605957 405.35076077 -519.88647461 405.34838867 C-520.98940102 405.35342659 -520.98940102 405.35342659 -522.11460876 405.35856628 C-524.54647509 405.36806923 -526.97827251 405.37001901 -529.41015625 405.37109375 C-531.1002251 405.37430659 -532.79029367 405.37767068 -534.48036194 405.38117981 C-538.02361699 405.38716929 -541.56684766 405.38901987 -545.11010742 405.38842773 C-549.65087435 405.38832608 -554.19148504 405.40198285 -558.73221493 405.41919994 C-562.22291279 405.43031647 -565.71357282 405.43234706 -569.20428658 405.43181801 C-570.87842917 405.43299847 -572.55257274 405.43742397 -574.22669792 405.44515038 C-576.56782874 405.45494408 -578.90861961 405.45207486 -581.24975586 405.44604492 C-581.94131775 405.45166443 -582.63287964 405.45728394 -583.34539795 405.46307373 C-586.90267777 405.43978297 -589.70598861 405.34618591 -592.6328125 403.203125 C-593.77191641 399.78581326 -593.75580417 397.18314792 -593.75306702 393.57832336 C-593.75392144 392.90197395 -593.75477587 392.22562454 -593.75565618 391.52877969 C-593.75730597 389.25784784 -593.7517978 386.98698952 -593.74633789 384.71606445 C-593.74605588 383.09002687 -593.74621401 381.46398917 -593.7467804 379.83795166 C-593.74706785 375.41883765 -593.74117952 370.99975066 -593.73420644 366.58064294 C-593.72796424 361.96417899 -593.72736841 357.34771446 -593.72618103 352.73124695 C-593.72307028 343.98713854 -593.71486032 335.2430426 -593.70483154 326.49893969 C-593.69366248 316.54501042 -593.68815795 306.59108057 -593.68313611 296.63714659 C-593.67267751 276.15913243 -593.65508299 255.6811295 -593.6328125 235.203125 C-594.41764008 235.20756622 -595.20246765 235.21200745 -596.01107788 235.21658325 C-603.39795208 235.25661417 -610.78477388 235.28708599 -618.17172813 235.30674934 C-621.96967562 235.31719821 -625.76753368 235.33137736 -629.56542969 235.35400391 C-633.22882596 235.37569321 -636.89213607 235.38768531 -640.55559158 235.39287949 C-641.95507794 235.39658231 -643.35455945 235.40381277 -644.75400925 235.41458511 C-646.71014581 235.42904725 -648.66636859 235.42994147 -650.62255859 235.43017578 C-652.29467911 235.43683762 -652.29467911 235.43683762 -654.00057983 235.44363403 C-656.6328125 235.203125 -656.6328125 235.203125 -658.6328125 233.203125 C-658.89350891 230.28063965 -658.89350891 230.28063965 -658.9074707 226.49023438 C-658.91258163 225.8006514 -658.91769257 225.11106842 -658.92295837 224.40058899 C-658.93688487 222.11592995 -658.93589554 219.83157149 -658.93359375 217.546875 C-658.93747867 215.96268602 -658.94181292 214.37849809 -658.94657898 212.79431152 C-658.95404751 209.47205225 -658.95374512 206.14989924 -658.94848633 202.82763672 C-658.94268717 198.5634276 -658.95963006 194.2996522 -658.982831 190.03551483 C-658.9975385 186.76362552 -658.99844421 183.49184143 -658.99532127 180.21992493 C-658.99583587 178.64739624 -659.00109952 177.07486187 -659.01113319 175.50236511 C-659.02342474 173.30662557 -659.01675116 171.11174075 -659.00512695 168.91601562 C-659.00575638 167.66518188 -659.0063858 166.41434814 -659.0070343 165.12561035 C-658.88354111 164.16119019 -658.76004791 163.19677002 -658.6328125 162.203125 C-655.55134857 160.14881571 -654.92536787 159.95246693 -651.44858646 159.94585609 C-650.5916482 159.9394072 -649.73470993 159.93295831 -648.85180384 159.926314 C-647.90998851 159.9294112 -646.96817318 159.9325084 -645.99781799 159.93569946 C-644.99760665 159.93116835 -643.99739531 159.92663724 -642.96687454 159.92196882 C-639.59969619 159.90926132 -636.23267826 159.91094927 -632.86547852 159.91259766 C-630.45776154 159.90661642 -628.05004649 159.89981182 -625.64233398 159.89224243 C-619.77191507 159.87637613 -613.90153405 159.87013232 -608.03109808 159.86901768 C-603.26050729 159.86806789 -598.48992977 159.86396111 -593.71934319 159.85761642 C-580.19962909 159.84000116 -566.67994676 159.8307781 -553.16022111 159.83227737 C-552.06662089 159.83239724 -552.06662089 159.83239724 -550.95092773 159.83251953 C-550.22097286 159.83260129 -549.49101799 159.83268305 -548.73894327 159.83276729 C-536.90480491 159.83358047 -525.07079375 159.81443568 -513.2366922 159.7862428 C-501.09119553 159.75753589 -488.94576095 159.74370126 -476.80022949 159.74543035 C-469.97911105 159.74609497 -463.15812597 159.74057115 -456.33703804 159.71907425 C-449.92420009 159.69899374 -443.51157139 159.69951367 -437.09871674 159.71410751 C-434.74121884 159.7162064 -432.38370364 159.71143102 -430.02623558 159.6993866 C-426.81541748 159.68404112 -423.6055862 159.69317171 -420.39479065 159.70864868 C-419.45520604 159.69836156 -418.51562143 159.68807443 -417.54756457 159.67747557 C-411.25286823 159.74483211 -411.25286823 159.74483211 -408.10284328 162.0730648 C-406.37038812 164.58337535 -405.28276777 166.95811252 -404.20703125 169.81640625 C-403.52350586 171.61331909 -403.52350586 171.61331909 -402.82617188 173.4465332 C-402.3238595 174.80276413 -401.82192121 176.15913366 -401.3203125 177.515625 C-400.77860192 178.95620176 -400.23625866 180.39654072 -399.69335938 181.83666992 C-392.51434812 200.96209239 -385.56948182 220.17822763 -378.5925293 239.37817383 C-378.10028714 240.73197845 -377.60803369 242.08577897 -377.11576843 243.4395752 C-376.20037475 245.95713155 -375.28663442 248.47526666 -374.37385559 250.99377441 C-371.54896083 258.76625358 -368.62820034 266.49480263 -365.6328125 274.203125 C-363.46591509 272.03622759 -362.95742551 270.73603762 -361.9597168 267.8815918 C-361.64099106 266.97878479 -361.32226532 266.07597778 -360.99388123 265.14581299 C-360.65172073 264.15796814 -360.30956024 263.17012329 -359.95703125 262.15234375 C-359.41448448 260.60809723 -359.41448448 260.60809723 -358.86097717 259.03265381 C-357.67531421 255.65385641 -356.49776745 252.27229057 -355.3203125 248.890625 C-354.50540866 246.56304825 -353.68997594 244.2356566 -352.87402344 241.90844727 C-351.2320747 237.22313781 -349.59312136 232.53679729 -347.95654297 227.84960938 C-345.90225199 221.96887581 -343.83557407 216.09260872 -341.76171875 210.21875 C-341.17941256 208.5681261 -340.59713621 206.91749167 -340.01489258 205.2668457 C-339.21508999 202.99948954 -338.41515438 200.73218176 -337.61434937 198.46517944 C-336.88459186 196.39789713 -336.15704662 194.32984592 -335.4296875 192.26171875 C-335.08391411 191.28569954 -335.08391411 191.28569954 -334.7311554 190.28996277 C-333.45705653 186.66609899 -332.25590006 183.02929588 -331.11914062 179.35986328 C-330.86287903 178.54767838 -330.60661743 177.73549347 -330.34259033 176.8986969 C-329.85280798 175.33843175 -329.37535588 173.77421978 -328.91278076 172.20567322 C-327.39032816 167.39108563 -325.6066096 164.53251182 -321.6328125 161.203125 C-318.68650483 159.72997116 -315.76240354 160.18730964 -312.54370117 160.29931641 C-311.02909473 160.34207329 -309.51445965 160.38382414 -307.99980164 160.42471313 C-307.19420996 160.44722767 -306.38861828 160.4697422 -305.55861473 160.492939 C-300.38112467 160.62042045 -295.20216002 160.6628686 -290.02344799 160.71427345 C-285.48006048 160.7640645 -280.94252159 160.84782281 -276.40161133 161.00878906 C-257.40162385 162.5145154 -257.40162385 162.5145154 -239.74963379 157.37649536 C-235.38702523 153.06857959 -232.84968415 148.2112635 -230.63356018 142.54846191 C-229.09946993 138.95319154 -226.86331308 135.9847451 -224.5078125 132.890625 C-223.69719908 131.76968694 -222.88834158 130.64747482 -222.08203125 129.5234375 C-205.89755536 107.44481646 -187.45675552 86.02227087 -166.6328125 68.203125 C-165.72015625 67.40132813 -164.8075 66.59953125 -163.8671875 65.7734375 C-148.96469856 52.78207812 -132.77494011 42.00218074 -115.6328125 32.203125 C-114.94461426 31.8014209 -114.25641602 31.3997168 -113.54736328 30.98583984 C-79.92368297 11.45731282 -38.91773354 0.18551278 0 0 Z " fill="#1D3365" transform="translate(822.6328125,-0.203125)"/>
<path d="M0 0 C1.60593269 -0.01258347 1.60593269 -0.01258347 3.24430847 -0.02542114 C4.40901169 -0.01418213 5.5737149 -0.00294312 6.77371216 0.00863647 C8.0085585 0.00483978 9.24340485 0.00104309 10.51567078 -0.00286865 C13.89887032 -0.00900607 17.28109099 0.00273339 20.66417456 0.02303743 C24.21924535 0.04066539 27.77430114 0.03708198 31.32940674 0.03631592 C37.30979184 0.03818886 43.28997401 0.0555373 49.27029419 0.08285522 C56.14851525 0.11416221 63.02651309 0.12485626 69.9048003 0.12338412 C77.26229906 0.12202287 84.6197136 0.13597819 91.97718668 0.15427732 C94.0777701 0.15850512 96.17833958 0.15995498 98.27892685 0.16075516 C131.10935651 0.18497727 158.48261593 3.28816376 182.91482544 27.24447632 C200.55547502 45.06799516 206.87494023 65.74688718 206.84890747 90.34970093 C206.6024796 112.55015153 198.17297945 133.39807407 182.181427 149.07113647 C177.05274861 153.69392482 171.27779941 157.58218293 165.60232544 161.49447632 C169.42270155 167.84383379 173.53446718 173.80969747 178.03982544 179.68197632 C185.43789458 189.36743433 192.07763248 199.54895001 198.77371216 209.72592163 C200.83734679 212.85030303 202.9288494 215.95490985 205.02615356 219.05673218 C216.40562474 235.94346288 216.40562474 235.94346288 215.60232544 243.49447632 C211.80826798 245.96842939 207.92354123 245.83117652 203.54837036 245.88021851 C202.73973038 245.89657349 201.93109039 245.91292847 201.09794617 245.92977905 C198.42625854 245.97933738 195.7547821 246.01247651 193.08279419 246.04135132 C192.1684643 246.05199867 191.25413441 246.06264603 190.31209755 246.07361603 C185.4735716 246.1270111 180.6351477 246.16578403 175.79641724 246.19467163 C171.79646449 246.22136457 167.79854941 246.27708943 163.79934692 246.35873413 C158.96393666 246.4574395 154.13037524 246.50691606 149.29400063 246.52112579 C147.45467231 246.53453795 145.61538428 246.56495183 143.77663231 246.61290741 C129.40642808 246.96634552 129.40642808 246.96634552 124.98382568 243.35818481 C123.16736021 240.79956386 121.87808956 238.35363897 120.60232544 235.49447632 C119.62665664 233.95276507 118.62993972 232.42393616 117.60232544 230.91635132 C116.60144352 229.35962632 115.60147322 227.8023149 114.60232544 226.24447632 C107.9976601 216.0289626 101.24429066 205.92398468 94.29031372 195.94271851 C92.76628718 193.73228487 91.28748372 191.49858766 89.81716919 189.25228882 C88.9975756 188.06079194 88.17613372 186.87056303 87.35232544 185.68197632 C86.68716919 184.68553101 86.02201294 183.68908569 85.33670044 182.66244507 C82.1897842 180.16739005 80.84992386 180.12699714 76.931427 179.85897827 C75.93516296 179.7857283 74.93889893 179.71247833 73.91244507 179.63700867 C73.15010559 179.58997299 72.38776611 179.54293732 71.60232544 179.49447632 C71.60676666 180.23727844 71.61120789 180.98008057 71.61578369 181.74539185 C71.6558744 188.7490181 71.68631695 195.75260454 71.70594978 202.75631332 C71.71638257 206.35690968 71.73053245 209.95741114 71.75320435 213.55795288 C71.77495089 217.03332704 71.78689787 220.50860998 71.79207993 223.98404694 C71.79756826 225.95384227 71.81317835 227.92360097 71.82891846 229.89334106 C71.82906952 231.09428406 71.82922058 232.29522705 71.82937622 233.53256226 C71.83381744 234.58957336 71.83825867 235.64658447 71.84283447 236.73562622 C71.59436059 239.5858401 71.24531243 241.16471711 69.60232544 243.49447632 C66.2334032 245.92943693 62.95244986 245.75357406 58.89358521 245.76913452 C58.22803619 245.77424545 57.56248718 245.77935638 56.87677002 245.78462219 C54.68233178 245.79849294 52.48820849 245.79756339 50.29373169 245.79525757 C48.76442855 245.79914588 47.23512648 245.80348083 45.70582581 245.8082428 C42.50226336 245.81569957 39.29881113 245.81541769 36.09524536 245.81015015 C31.99504882 245.80435604 27.89530408 245.82128736 23.79518223 245.84449482 C20.63726678 245.85924465 17.47945983 245.86010218 14.32151604 245.85698509 C12.81007937 245.85749767 11.29863653 245.86272359 9.78723335 245.87279701 C7.6713458 245.88516891 5.55633431 245.87836627 3.44046021 245.86679077 C2.23785049 245.8674202 1.03524078 245.86804962 -0.20381165 245.86869812 C-3.81241704 245.44588135 -5.62021531 244.83478701 -8.39767456 242.49447632 C-10.69036342 237.33314892 -10.68697791 232.52771971 -10.67182922 226.99224854 C-10.6770659 226.0425601 -10.68230258 225.09287167 -10.68769795 224.1144048 C-10.70268482 220.93620228 -10.7034028 217.75816095 -10.70407104 214.57992554 C-10.71169311 212.29984262 -10.72012069 210.01976227 -10.72929382 207.73968506 C-10.75123395 201.54988158 -10.76003646 195.36012749 -10.76512027 189.17028952 C-10.76876272 185.30510083 -10.77500203 181.43992511 -10.78212166 177.57474136 C-10.80156957 166.87043034 -10.81808881 156.16613377 -10.82099819 145.46180534 C-10.82118576 144.77753651 -10.82137333 144.09326767 -10.82156659 143.38826341 C-10.82193283 142.00116102 -10.82229653 140.61405863 -10.8226577 139.22695623 C-10.82284051 138.53841657 -10.82302332 137.84987691 -10.82321167 137.14047241 C-10.82339222 136.45109204 -10.82357277 135.76171166 -10.82375879 135.05144097 C-10.82730464 123.86734769 -10.85435776 112.68344642 -10.89170956 101.49941979 C-10.92976191 90.0137429 -10.94871397 78.52820282 -10.94945771 67.04245389 C-10.95025231 60.59468713 -10.95907615 54.14716851 -10.98745537 47.69945908 C-11.01352964 41.64025806 -11.01590071 35.58151289 -10.99979973 29.52228165 C-10.99797708 27.29539246 -11.00474894 25.06847767 -11.02061844 22.84164429 C-11.04092388 19.80812796 -11.03061868 16.77623026 -11.0124054 13.74273682 C-11.02560536 12.8557809 -11.03880533 11.96882498 -11.0524053 11.0549916 C-10.99571657 6.93879952 -10.95904779 5.14410708 -8.19660854 1.94736481 C-5.16195805 0.37211909 -3.39648556 -0.00399115 0 0 Z " fill="#FDFEFE" transform="translate(682.3976745605469,160.50552368164063)"/>
<path d="M0 0 C0.67544861 -0.00554901 1.35089722 -0.01109802 2.04681396 -0.01681519 C4.26892119 -0.02858021 6.48897442 -0.00437276 8.7109375 0.02148438 C10.26122952 0.02319644 11.81152444 0.02312882 13.36181641 0.0213623 C16.6067281 0.02301374 19.85094741 0.04167791 23.09570312 0.07324219 C27.24863346 0.11291987 31.40065754 0.11728647 35.55374146 0.10977936 C38.7537461 0.1067053 41.95354818 0.11884555 45.15350342 0.13591003 C46.68445566 0.14292597 48.21543085 0.14606628 49.74639893 0.1452179 C51.88864386 0.14702192 54.02981631 0.16845293 56.171875 0.1953125 C57.3892334 0.20373169 58.6065918 0.21215088 59.86083984 0.2208252 C63.44706508 0.65939801 65.29101278 1.33856251 68.0859375 3.61523438 C70.61967003 8.21180196 70.3687409 12.76696608 70.34663391 17.86985779 C70.35237223 19.27261612 70.35237223 19.27261612 70.35822648 20.703713 C70.36854946 23.83890938 70.36456563 26.97392238 70.3605957 30.10913086 C70.36494255 32.35626393 70.3701256 34.60339552 70.37608337 36.8505249 C70.38948718 42.95582555 70.39005053 49.06106434 70.38752007 55.16637683 C70.38645136 60.26099016 70.39133115 65.35559093 70.3961255 70.45020157 C70.40786019 83.15487119 70.40699285 95.859496 70.40056869 108.56416518 C70.39539919 119.59495657 70.40665599 130.62565966 70.42566691 141.65643357 C70.44504315 152.98613611 70.45301024 164.31578468 70.44954365 175.64550835 C70.44772886 182.00497492 70.45038667 188.3643606 70.46425819 194.72381401 C70.47681266 200.70331083 70.47491491 206.68263061 70.46184731 212.66212463 C70.45947683 214.85752484 70.46223298 217.05293741 70.47047043 219.24832344 C70.48089954 222.24363139 70.47286783 225.23834109 70.4601593 228.23362732 C70.46753359 229.10376683 70.47490787 229.97390634 70.48250562 230.87041372 C70.43790525 235.86211278 69.83944825 239.28065466 67.0859375 243.61523438 C63.8037776 246.13382002 60.40811796 245.88019195 56.37719727 245.90576172 C55.71164825 245.91247894 55.04609924 245.91919617 54.36038208 245.92611694 C52.1659595 245.94507456 49.97184306 245.94901975 47.77734375 245.95117188 C46.24804052 245.95760072 44.71873852 245.96432915 43.18943787 245.97134399 C39.98588204 245.98331067 36.78243402 245.98702539 33.57885742 245.98583984 C29.47855095 245.98563654 25.37893667 246.01295279 21.27879429 246.04738426 C18.1208734 246.06964524 14.96311941 246.07367767 11.8051281 246.07262039 C10.29367624 246.07497702 8.78221983 246.08380416 7.27084541 246.09928513 C5.15476383 246.11893306 3.04017913 246.11311407 0.92407227 246.10107422 C-0.27853745 246.10392426 -1.48114716 246.10677429 -2.72019958 246.10971069 C-6.55749862 245.5156171 -8.20458457 244.35265385 -10.9140625 241.61523438 C-12.26240074 237.57021964 -12.0656149 233.66130442 -12.06796265 229.4425354 C-12.0723449 228.49203225 -12.07672715 227.54152911 -12.0812422 226.56222284 C-12.09464374 223.36325726 -12.10081206 220.16431924 -12.10693359 216.96533203 C-12.11483332 214.67746353 -12.12310219 212.38959628 -12.13171387 210.10173035 C-12.15794301 202.57759798 -12.1732397 195.05346001 -12.1875 187.52929688 C-12.1928588 184.9418271 -12.19823631 182.35435736 -12.20363235 179.76688766 C-12.22525997 169.00780213 -12.24414998 158.24871985 -12.25525475 147.4896183 C-12.25818445 144.69815695 -12.26114611 141.90669564 -12.26416016 139.11523438 C-12.26490621 138.42142919 -12.26565226 137.727624 -12.26642092 137.01279442 C-12.27908088 125.76776296 -12.31231375 114.52288938 -12.35396199 103.27793176 C-12.39636481 91.73472748 -12.4195399 80.19162862 -12.42517531 68.6483444 C-12.42883554 62.16639518 -12.44092889 55.6847138 -12.47327805 49.2028389 C-12.50326223 43.10757781 -12.50970483 37.01274799 -12.49789429 30.91742897 C-12.49767276 28.67805566 -12.50604255 26.43866288 -12.52354813 24.19935799 C-12.54611948 21.14634767 -12.53800024 18.0949172 -12.52206421 15.04190063 C-12.5359463 14.15192025 -12.54982838 13.26193986 -12.56413114 12.34499037 C-12.50747518 7.95195123 -12.3306012 6.15904598 -9.577631 2.56490898 C-6.17583297 0.07486631 -4.1936413 -0.00707729 0 0 Z " fill="#FDFDFD" transform="translate(931.9140625,160.384765625)"/>
<path d="M0 0 C8.25 0 16.5 0 25 0 C25.33 8.58 25.66 17.16 26 26 C30.00891117 20.4371389 30.00891117 20.4371389 34.01611328 14.87304688 C35.11263649 13.353141 36.22560144 11.84503141 37.35009766 10.34570312 C39.03814858 8.06598199 39.03814858 8.06598199 40.19287109 5.63867188 C41.59471661 3.09560565 42.60771733 1.67233944 45 0 C50.49186066 -0.98657105 55.82291131 -0.75537921 61.375 -0.5 C62.88922918 -0.45983649 64.40356035 -0.42334067 65.91796875 -0.390625 C69.61411071 -0.3028147 73.30640538 -0.1649776 77 0 C75.17366857 3.88734281 72.678098 6.90494354 69.875 10.125 C68.87658224 11.28818611 67.87919437 12.45225698 66.8828125 13.6171875 C66.39200195 14.19049805 65.90119141 14.76380859 65.39550781 15.35449219 C59.71247304 22.05562136 54.37597093 29.05238626 49 36 C53.14020029 42.33825992 57.48575461 48.4860103 62 54.5625 C62.59039062 55.36107422 63.18078125 56.15964844 63.7890625 56.98242188 C67.50512403 62.00401604 71.24676039 67.00615592 75 72 C77.86455645 66.45157028 80.33504768 60.88438907 82.57421875 55.05859375 C83.06260979 53.80205994 83.06260979 53.80205994 83.56086731 52.5201416 C84.60664453 49.82729523 85.64710463 47.13242965 86.6875 44.4375 C87.40455501 42.58847063 88.1220043 40.73959412 88.83984375 38.89086914 C90.25083875 35.25600894 91.66009643 31.62048358 93.06787109 27.984375 C95.52955775 21.62925826 98.01249461 15.2825537 100.5 8.9375 C101.655 5.988125 102.81 3.03875 104 0 C113.9 0 123.8 0 134 0 C135.24394531 3.21234375 136.48789063 6.4246875 137.76953125 9.734375 C139.0110058 12.93910343 140.25271652 16.14374024 141.49447632 19.34835815 C142.3704566 21.60914545 143.24629166 23.86998902 144.12197876 26.13088989 C150.37836502 42.28931268 150.37836502 42.28931268 156.7109375 58.41796875 C156.97470688 59.08541107 157.23847626 59.75285339 157.51023865 60.44052124 C158.68586984 63.41319778 159.86590967 66.38401897 161.05200195 69.35253906 C161.4512085 70.35897461 161.85041504 71.36541016 162.26171875 72.40234375 C162.60162842 73.25304443 162.94153809 74.10374512 163.29174805 74.98022461 C164 77 164 77 164 79 C154.1 79 144.2 79 134 79 C132.02 73.555 132.02 73.555 130 68 C122.08 67.67 114.16 67.34 106 67 C105.34 69.97 104.68 72.94 104 76 C103.505 77.485 103.505 77.485 103 79 C93.74117296 79.84111088 84.47802419 80.42121869 75.1875 80.75 C74.17857571 80.78595276 74.17857571 80.78595276 73.1492691 80.82263184 C46.35388052 81.66842998 46.35388052 81.66842998 38.5393219 74.57330322 C32.41564879 67.74590073 28.96474071 59.57696207 26 51 C25.67 60.24 25.34 69.48 25 79 C16.75 79 8.5 79 0 79 C0 52.93 0 26.86 0 0 Z M118 30 C116.35 35.28 114.7 40.56 113 46 C116.63 46 120.26 46 124 46 C123.54625 44.288125 123.0925 42.57625 122.625 40.8125 C122.36976562 39.84957031 122.11453125 38.88664063 121.8515625 37.89453125 C121.05233704 35.17789793 120.0968638 32.60862825 119 30 C118.67 30 118.34 30 118 30 Z " fill="#656565" transform="translate(0,654)"/>
<path d="M0 0 C11.55 0 23.1 0 35 0 C35.92683594 2.73152344 36.85367188 5.46304688 37.80859375 8.27734375 C38.70477866 10.91194367 39.60197309 13.54619773 40.49926758 16.18041992 C41.12402412 18.01632303 41.74772473 19.85258582 42.37036133 21.68920898 C43.26368603 24.32369956 44.16075657 26.95688816 45.05859375 29.58984375 C45.3377916 30.41588608 45.61698944 31.24192841 45.90464783 32.09300232 C46.94237783 35.83407207 46.94237783 35.83407207 49 39 C49.32798584 37.854104 49.65597168 36.70820801 49.99389648 35.52758789 C51.20755667 31.29063386 52.42550438 27.05492255 53.64477539 22.81958008 C54.1726464 20.98365544 54.69934206 19.14739244 55.22485352 17.31079102 C55.9788695 14.67635441 56.73705519 12.04314948 57.49609375 9.41015625 C57.73154404 8.58411392 57.96699432 7.75807159 58.20957947 6.90699768 C59.88612829 1.11387171 59.88612829 1.11387171 61 0 C72.88 0 84.76 0 97 0 C97 26.07 97 52.14 97 79 C88.42 79 79.84 79 71 79 C70.67 66.79 70.34 54.58 70 42 C69.14535156 44.58714844 68.29070312 47.17429687 67.41015625 49.83984375 C66.58348342 52.33544449 65.75578194 54.83070182 64.92797852 57.32592773 C64.35170451 59.06482844 63.77650631 60.80408604 63.20239258 62.54370117 C62.37861894 65.03918801 61.55102809 67.5333801 60.72265625 70.02734375 C60.46533218 70.80963852 60.20800812 71.59193329 59.94288635 72.39793396 C58.11387171 77.88612829 58.11387171 77.88612829 57 79 C55.58429877 79.08651611 54.164405 79.10704904 52.74609375 79.09765625 C51.89208984 79.09443359 51.03808594 79.09121094 50.15820312 79.08789062 C49.26037109 79.07951172 48.36253906 79.07113281 47.4375 79.0625 C46.53580078 79.05798828 45.63410156 79.05347656 44.70507812 79.04882812 C42.46998686 79.03700225 40.23502563 79.0205222 38 79 C34.59113084 70.94331406 31.88604469 62.71136883 29.25 54.375 C27.8475 49.96125 26.445 45.5475 25 41 C25 53.54 25 66.08 25 79 C16.75 79 8.5 79 0 79 C0 52.93 0 26.86 0 0 Z " fill="#656565" transform="translate(270,654)"/>
<path d="M0 0 C8.91 0 17.82 0 27 0 C33.74615385 10.11923077 33.74615385 10.11923077 36.359375 15.0234375 C36.91753906 16.06371094 37.47570312 17.10398437 38.05078125 18.17578125 C38.61152344 19.23152344 39.17226563 20.28726563 39.75 21.375 C40.88938329 23.5084761 42.02995372 25.64131875 43.171875 27.7734375 C43.6678418 28.70591309 44.16380859 29.63838867 44.67480469 30.59912109 C46.03686122 33.14581119 46.03686122 33.14581119 48 36 C48 24.12 48 12.24 48 0 C56.58 0 65.16 0 74 0 C74 26.07 74 52.14 74 79 C64.76 79 55.52 79 46 79 C41.79726405 74.63966146 40.6758301 73.44818617 38.90234375 68.27050781 C37.43508929 64.5785526 35.37097405 61.2473149 33.35351562 57.83349609 C30.85080405 53.5856113 28.43420036 49.28751199 26 45 C26 56.22 26 67.44 26 79 C17.42 79 8.84 79 0 79 C0 52.93 0 26.86 0 0 Z " fill="#656565" transform="translate(466,654)"/>
<path d="M0 0 C9.24 0 18.48 0 28 0 C29.10859375 2.01222656 30.2171875 4.02445313 31.359375 6.09765625 C32.44485708 8.06704756 33.53052528 10.03633615 34.61621094 12.00561523 C35.36510314 13.36423212 36.11380472 14.72295409 36.86230469 16.08178711 C37.94414813 18.04569357 39.02669839 20.00920901 40.109375 21.97265625 C40.43871033 22.57086685 40.76804565 23.16907745 41.10736084 23.78541565 C43.36674919 27.88069035 45.67884778 31.93798362 48 36 C48 24.12 48 12.24 48 0 C56.58 0 65.16 0 74 0 C74 26.07 74 52.14 74 79 C64.76 79 55.52 79 46 79 C39.88684567 70.97954152 36.77189513 65.87641065 33 57 C29.535 51.06 29.535 51.06 26 45 C26 56.22 26 67.44 26 79 C17.42 79 8.84 79 0 79 C0 52.93 0 26.86 0 0 Z " fill="#656565" transform="translate(949,654)"/>
<path d="M0 0 C8.91 0 17.82 0 27 0 C33.66666667 11.66666667 40.33333333 23.33333333 47 35 C47 23.45 47 11.9 47 0 C55.58 0 64.16 0 73 0 C73 26.07 73 52.14 73 79 C63.76 79 54.52 79 45 79 C43.87980469 77.03675781 42.75960937 75.07351563 41.60546875 73.05078125 C40.51339632 71.13770166 39.42113583 69.22472957 38.32885742 67.31176758 C37.57312701 65.98798654 36.81759043 64.66409483 36.06225586 63.34008789 C34.97301041 61.43085675 33.88305557 59.5220321 32.79296875 57.61328125 C32.45847214 57.02662186 32.12397552 56.43996246 31.77934265 55.83552551 C29.89121971 52.53119899 27.95858223 49.26430372 26 46 C26 56.89 26 67.78 26 79 C17.42 79 8.84 79 0 79 C0 52.93 0 26.86 0 0 Z " fill="#656565" transform="translate(705,654)"/>
<path d="M0 0 C8.91 0 17.82 0 27 0 C27 8.58 27 17.16 27 26 C33.6 26 40.2 26 47 26 C47 17.42 47 8.84 47 0 C55.91 0 64.82 0 74 0 C74 26.07 74 52.14 74 79 C65.09 79 56.18 79 47 79 C47 69.1 47 59.2 47 49 C40.4 49 33.8 49 27 49 C27 58.9 27 68.8 27 79 C18.09 79 9.18 79 0 79 C0 52.93 0 26.86 0 0 Z " fill="#656565" transform="translate(1206,654)"/>
<path d="M0 0 C1.89453125 1.47265625 1.89453125 1.47265625 3.1875 2.9375 C3.1875 7.00684071 1.60616292 8.17617327 -1 11.25 C-1.81726562 12.22195313 -2.63453125 13.19390625 -3.4765625 14.1953125 C-4.63285156 15.55269531 -4.63285156 15.55269531 -5.8125 16.9375 C-6.83492466 18.16534331 -7.85617647 19.39416695 -8.875 20.625 C-9.514375 21.388125 -10.15375 22.15125 -10.8125 22.9375 C-13.11411177 21.78669412 -15.34400394 20.62342949 -17.5625 19.3125 C-22.26209747 17.32420876 -26.13727179 17.16411585 -30.9609375 18.55859375 C-35.67395555 20.52965148 -38.21930866 22.93688866 -40.1875 27.6640625 C-41.78051324 33.45864816 -41.60042213 38.84961108 -39.1875 44.375 C-36.99846031 48.12439325 -35.07739792 49.69680242 -30.8125 50.9375 C-27.13006696 51.15590637 -23.4957797 51.11445472 -19.8125 50.9375 C-19.4825 49.2875 -19.1525 47.6375 -18.8125 45.9375 C-23.1025 45.9375 -27.3925 45.9375 -31.8125 45.9375 C-31.8125 39.0075 -31.8125 32.0775 -31.8125 24.9375 C-19.6025 24.9375 -7.3925 24.9375 5.1875 24.9375 C5.1875 39.4575 5.1875 53.9775 5.1875 68.9375 C-13.15663485 75.99293648 -30.41613946 79.49727539 -49 71.25 C-58.56172809 66.01096982 -65.30949879 58.20347381 -68.625 47.875 C-71.56542876 35.65701152 -70.73637126 22.66353221 -64.4921875 11.59765625 C-58.08558758 2.47787877 -49.31252893 -3.7967877 -38.51171875 -6.67578125 C-25.27959517 -8.57155583 -11.23548801 -7.86288079 0 0 Z " fill="#656565" transform="translate(1102.8125,659.0625)"/>
<path d="M0 0 C1.20970459 0.00523682 2.41940918 0.01047363 3.66577148 0.01586914 C4.97094727 0.0190918 6.27612305 0.02231445 7.62084961 0.02563477 C9.00952213 0.03399138 10.39819401 0.04245634 11.78686523 0.05102539 C13.17944179 0.05603873 14.57202005 0.06060193 15.96459961 0.06469727 C19.38456394 0.07653105 22.80444367 0.09301659 26.22436523 0.11352539 C35.08887599 21.43982445 43.41144913 42.96816271 51.68692017 64.5284729 C51.99197479 65.32272675 52.29702942 66.11698059 52.61132812 66.93530273 C52.89178986 67.66803406 53.17225159 68.40076538 53.46121216 69.15570068 C54.09478778 70.78110199 54.76519619 72.39208915 55.44482422 73.9987793 C56.22436523 76.11352539 56.22436523 76.11352539 56.22436523 79.11352539 C46.65436523 79.11352539 37.08436523 79.11352539 27.22436523 79.11352539 C23.22436523 70.11352539 23.22436523 70.11352539 23.22436523 67.11352539 C15.30436523 67.44352539 7.38436523 67.77352539 -0.77563477 68.11352539 C-2.09563477 71.74352539 -3.41563477 75.37352539 -4.77563477 79.11352539 C-14.34563477 79.11352539 -23.91563477 79.11352539 -33.77563477 79.11352539 C-30.40077247 68.98893851 -30.40077247 68.98893851 -28.71020508 64.69580078 C-28.33261047 63.73352066 -27.95501587 62.77124054 -27.565979 61.77980042 C-27.16594666 60.76715622 -26.76591431 59.75451202 -26.35375977 58.71118164 C-25.93068542 57.634608 -25.50761108 56.55803436 -25.07171631 55.44883728 C-23.72519854 52.02370586 -22.37552643 48.59982833 -21.02563477 45.17602539 C-19.69452827 41.79376515 -18.36407819 38.41124741 -17.03381348 35.02865601 C-16.16928364 32.83100272 -15.30413856 30.63359136 -14.43835449 28.43643188 C-12.48072068 23.46572495 -10.53096139 18.49242866 -8.60961914 13.50756836 C-8.28354675 12.66246201 -7.95747437 11.81735565 -7.621521 10.94664001 C-7.02217699 9.39023204 -6.42507487 7.83295819 -5.83062744 6.27467346 C-3.46898964 0.14188409 -3.46898964 0.14188409 0 0 Z M10.22436523 31.11352539 C9.55216173 33.04911138 8.88678446 34.98706911 8.22436523 36.92602539 C7.85311523 38.0049707 7.48186523 39.08391602 7.09936523 40.19555664 C6.08075011 43.08473341 6.08075011 43.08473341 6.22436523 46.11352539 C9.52436523 46.11352539 12.82436523 46.11352539 16.22436523 46.11352539 C15.13703071 40.98751979 13.99799031 36.05433811 12.22436523 31.11352539 C11.56436523 31.11352539 10.90436523 31.11352539 10.22436523 31.11352539 Z " fill="#656565" transform="translate(1144.775634765625,653.886474609375)"/>
<path d="M0 0 C1.20970459 0.00523682 2.41940918 0.01047363 3.66577148 0.01586914 C4.97094727 0.0190918 6.27612305 0.02231445 7.62084961 0.02563477 C9.00952213 0.03399138 10.39819401 0.04245634 11.78686523 0.05102539 C13.17944179 0.05603873 14.57202005 0.06060193 15.96459961 0.06469727 C19.38456394 0.07653105 22.80444367 0.09301659 26.22436523 0.11352539 C33.79005063 18.25064328 40.88291424 36.5469289 47.82788086 54.92944336 C48.33073608 56.25862289 48.33073608 56.25862289 48.84375 57.61465454 C49.4727096 59.27812346 50.10025449 60.94212829 50.72607422 62.60678101 C52.0493969 66.10856332 53.40902936 69.5658058 54.93725586 72.98364258 C56.22436523 76.11352539 56.22436523 76.11352539 56.22436523 79.11352539 C46.65436523 79.11352539 37.08436523 79.11352539 27.22436523 79.11352539 C23.22436523 70.11352539 23.22436523 70.11352539 23.22436523 67.11352539 C15.30436523 67.44352539 7.38436523 67.77352539 -0.77563477 68.11352539 C-2.09563477 71.74352539 -3.41563477 75.37352539 -4.77563477 79.11352539 C-14.34563477 79.11352539 -23.91563477 79.11352539 -33.77563477 79.11352539 C-31.764445 73.07995611 -29.69356213 67.15808324 -27.36938477 61.25024414 C-26.88714195 60.01640739 -26.88714195 60.01640739 -26.39515686 58.75764465 C-25.35755412 56.10455575 -24.31672835 53.45274618 -23.27563477 50.80102539 C-22.55795326 48.96905376 -21.84042508 47.13702206 -21.12304688 45.30493164 C-19.68795853 41.64088921 -18.25152362 37.97737861 -16.81420898 34.31420898 C-15.24545171 30.3145912 -13.68191252 26.31297783 -12.12234497 22.30976868 C-11.33971561 20.30104548 -10.55596256 18.29276515 -9.77172852 16.28466797 C-8.83380444 13.88283481 -7.89753921 11.48035305 -6.96313477 9.07714844 C-6.55192383 8.02696533 -6.14071289 6.97678223 -5.71704102 5.89477539 C-5.36327393 4.98791992 -5.00950684 4.08106445 -4.64501953 3.14672852 C-3.35823004 0.13735394 -3.35823004 0.13735394 0 0 Z M10.22436523 31.11352539 C9.55216173 33.04911138 8.88678446 34.98706911 8.22436523 36.92602539 C7.85311523 38.0049707 7.48186523 39.08391602 7.09936523 40.19555664 C6.08075011 43.08473341 6.08075011 43.08473341 6.22436523 46.11352539 C9.52436523 46.11352539 12.82436523 46.11352539 16.22436523 46.11352539 C15.13703071 40.98751979 13.99799031 36.05433811 12.22436523 31.11352539 C11.56436523 31.11352539 10.90436523 31.11352539 10.22436523 31.11352539 Z " fill="#656565" transform="translate(643.775634765625,653.886474609375)"/>
<path d="M0 0 C9.57 0 19.14 0 29 0 C33.49946349 8.99892697 33.49946349 8.99892697 34.74829102 12.31933594 C35.17562279 13.44555611 35.17562279 13.44555611 35.61158752 14.5945282 C35.9060527 15.38317764 36.20051788 16.17182709 36.50390625 16.984375 C36.82403183 17.83058914 37.14415741 18.67680328 37.47398376 19.54866028 C38.15567391 21.35159724 38.83552848 23.15522917 39.51367188 24.95950317 C41.28324203 29.66759575 43.06568239 34.37080977 44.84765625 39.07421875 C45.20086945 40.00737411 45.55408264 40.94052948 45.91799927 41.90196228 C49.49287617 51.33121063 53.17644428 60.71574205 56.90063477 70.08691406 C57.52216431 71.6545752 57.52216431 71.6545752 58.15625 73.25390625 C58.51525391 74.15439697 58.87425781 75.0548877 59.24414062 75.98266602 C60 78 60 78 60 79 C50.1 79 40.2 79 30 79 C26 69 26 69 26 67 C18.08 67 10.16 67 2 67 C1.01 70.63 0.02 74.26 -1 78 C-2 79 -2 79 -4.68383789 79.11352539 C-5.85164795 79.10828857 -7.01945801 79.10305176 -8.22265625 79.09765625 C-10.11274414 79.09282227 -10.11274414 79.09282227 -12.04101562 79.08789062 C-13.38151109 79.07953403 -14.72200588 79.07106907 -16.0625 79.0625 C-17.40689942 79.0574866 -18.7513006 79.05292342 -20.09570312 79.04882812 C-23.39717941 79.03699488 -26.69856803 79.02050971 -30 79 C-29.3701763 73.19109215 -27.26264681 68.16471846 -25.09765625 62.79296875 C-24.70382751 61.80222855 -24.30999878 60.81148834 -23.90423584 59.79072571 C-22.629298 56.58736848 -21.34601635 53.38742843 -20.0625 50.1875 C-19.19112794 48.00281248 -18.32027849 45.81791643 -17.44995117 43.6328125 C-15.34513324 38.35205339 -13.23384635 33.07391373 -11.11987305 27.79681396 C-9.58184824 23.95569173 -8.04840244 20.11274973 -6.515625 16.26953125 C-4.35103841 10.84337481 -2.17581827 5.4217111 0 0 Z M14 30 C13.16280617 32.29032311 12.3301071 34.58210957 11.5 36.875 C11.26152344 37.52597656 11.02304687 38.17695312 10.77734375 38.84765625 C9.45122467 42.33457589 9.45122467 42.33457589 9 46 C12.63 46 16.26 46 20 46 C18.35 40.72 16.7 35.44 15 30 C14.67 30 14.34 30 14 30 Z " fill="#656565" transform="translate(402,654)"/>
<path d="M0 0 C17.82 0 35.64 0 54 0 C54 7.59 54 15.18 54 23 C44.43 23 34.86 23 25 23 C25 24.65 25 26.3 25 28 C34.24 28 43.48 28 53 28 C53 35.26 53 42.52 53 50 C43.76 50 34.52 50 25 50 C25 51.98 25 53.96 25 56 C35.23 56 45.46 56 56 56 C56 63.59 56 71.18 56 79 C37.52 79 19.04 79 0 79 C0 52.93 0 26.86 0 0 Z " fill="#656565" transform="translate(883,654)"/>
<path d="M0 0 C21.78 0 43.56 0 66 0 C66 7.59 66 15.18 66 23 C59.73 23 53.46 23 47 23 C47 41.48 47 59.96 47 79 C37.76 79 28.52 79 19 79 C19 60.52 19 42.04 19 23 C12.73 23 6.46 23 0 23 C0 15.41 0 7.82 0 0 Z " fill="#656565" transform="translate(810,654)"/>
<path d="M0 0 C21.45 0 42.9 0 65 0 C65 7.59 65 15.18 65 23 C58.73 23 52.46 23 46 23 C46 41.48 46 59.96 46 79 C37.09 79 28.18 79 19 79 C19 60.52 19 42.04 19 23 C12.73 23 6.46 23 0 23 C0 15.41 0 7.82 0 0 Z " fill="#656565" transform="translate(547,654)"/>
<path d="M0 0 C5.094375 -0.0825 10.18875 -0.165 15.4375 -0.25 C17.82053345 -0.30462402 17.82053345 -0.30462402 20.25170898 -0.36035156 C30.81484299 -0.44299581 38.53512592 1.04488947 46.49609375 8.359375 C52.71754261 15.14641012 53.21008071 22.53858099 53.3125 31.3125 C53.34150391 32.12912109 53.37050781 32.94574219 53.40039062 33.78710938 C53.47613174 41.09903963 51.33418511 46.06559586 46.8125 51.75 C39.6369625 57.49043 31.98528881 59.13610761 22.94921875 59.09765625 C21.14070435 59.09390991 21.14070435 59.09390991 19.2956543 59.09008789 C17.01461792 59.07643188 17.01461792 59.07643188 14.6875 59.0625 C7.4171875 59.0315625 7.4171875 59.0315625 0 59 C0 39.53 0 20.06 0 0 Z " fill="#1D3365" transform="translate(754,224)"/>
<path d="M0 0 C9.24 0 18.48 0 28 0 C28 18.15 28 36.3 28 55 C36.58 55 45.16 55 54 55 C54 62.92 54 70.84 54 79 C36.18 79 18.36 79 0 79 C0 52.93 0 26.86 0 0 Z " fill="#666666" transform="translate(168,654)"/>
<path d="M0 0 C8.91 0 17.82 0 27 0 C27 26.07 27 52.14 27 79 C18.09 79 9.18 79 0 79 C0 52.93 0 26.86 0 0 Z " fill="#656565" transform="translate(229,654)"/>
</svg>
